<?xml version="1.0" encoding="utf-8"?>
<!-- Generator: Adobe Illustrator 24.2.3, SVG Export Plug-In . SVG Version: 6.00 Build 0)  -->
<svg version="1.1" id="Layer_1" xmlns="http://www.w3.org/2000/svg" xmlns:xlink="http://www.w3.org/1999/xlink" x="0px" y="0px"
	 viewBox="0 0 64 64" style="enable-background:new 0 0 64 64;" xml:space="preserve">
<g>
	<path d="M54.4,56.5c-3.2,0-5.8-2.6-5.8-5.8V34.2h11.6v16.5C60.2,53.9,57.6,56.5,54.4,56.5z M50.6,36.1v14.5c0,2.1,1.7,3.8,3.8,3.8
		s3.8-1.7,3.8-3.8V36.1H50.6z"/>
	<path d="M54.4,56.5H9.6c-3.2,0-5.8-2.6-5.8-5.8V7.5h46.8v43.1c0,2.1,1.7,3.8,3.8,3.8V56.5z M5.7,9.5v41.1c0,2.1,1.7,3.8,3.8,3.8
		h40.5c-0.9-1-1.5-2.4-1.5-3.8V9.5H5.7z"/>
	<path d="M12.7,29.7h-2c0-0.1,0-0.1-0.1-0.1v-2C11.7,27.7,12.7,28.6,12.7,29.7z"/>
	<path d="M18.9,29.7h-2c0-3.5-2.8-6.3-6.3-6.3v-2C15.2,21.4,18.9,25.2,18.9,29.7z"/>
	<path d="M24.9,29.7h-2c0-6.8-5.5-12.3-12.3-12.3v-2c3.8,0,7.4,1.5,10.1,4.2S24.9,25.9,24.9,29.7z"/>
	<rect x="20.1" y="41.2" width="23.6" height="2"/>
	<rect x="10.6" y="41.2" width="6.1" height="2"/>
	<rect x="10.6" y="46.9" width="23.6" height="2"/>
	<rect x="37.6" y="46.9" width="6.1" height="2"/>
	<path d="M43.7,29.7H28.4V15.5h15.4V29.7z M30.3,27.8h11.5V17.4H30.3V27.8z"/>
	<rect x="10.6" y="35.4" width="33.1" height="2"/>
	<rect x="49.6" y="46.9" width="6.3" height="2"/>
	<rect x="49.6" y="40.5" width="3.6" height="2"/>
</g>
</svg>
