<?xml version="1.0" encoding="utf-8"?>
<!-- Generator: Adobe Illustrator 24.2.3, SVG Export Plug-In . SVG Version: 6.00 Build 0)  -->
<svg version="1.1" id="Layer_1" xmlns="http://www.w3.org/2000/svg" xmlns:xlink="http://www.w3.org/1999/xlink" x="0px" y="0px"
	 viewBox="0 0 50 50" style="enable-background:new 0 0 50 50;" xml:space="preserve">
<style type="text/css">
	.st0{fill-rule:evenodd;clip-rule:evenodd;fill:#FFFFFF;}
	.st1{fill-rule:evenodd;clip-rule:evenodd;fill:#95C1FF;}
</style>
<g>
	<desc>Created with Sketch.</desc>
	<path class="st0" d="M5.8,37l18.4,10V25.5L5.8,14.8V37z M25,49.2c-0.1,0-0.3,0-0.4-0.1l-20-10.9c-0.3-0.1-0.4-0.4-0.4-0.7V13.3
		c0-0.3,0.2-0.6,0.4-0.7c0.3-0.1,0.6-0.1,0.8,0l20,11.7c0.3,0.1,0.4,0.4,0.4,0.7v23.4c0,0.3-0.2,0.6-0.4,0.7
		C25.3,49.2,25.1,49.2,25,49.2L25,49.2z"/>
	<path class="st0" d="M25.8,25.5V47l18.4-10V14.8L25.8,25.5z M25,49.2c-0.1,0-0.3,0-0.4-0.1c-0.3-0.2-0.4-0.4-0.4-0.7V25
		c0-0.3,0.2-0.6,0.4-0.7l20-11.7c0.3-0.2,0.6-0.2,0.8,0c0.3,0.1,0.4,0.4,0.4,0.7v24.2c0,0.3-0.2,0.6-0.4,0.7l-20,10.9
		C25.3,49.2,25.1,49.2,25,49.2L25,49.2z"/>
	<path class="st0" d="M6.6,13.3L25,24l18.4-10.7L25,2.6L6.6,13.3z M25,25.8c-0.1,0-0.3,0-0.4-0.1L4.5,14c-0.3-0.1-0.4-0.4-0.4-0.7
		s0.2-0.6,0.4-0.7l20-11.7c0.3-0.2,0.6-0.2,0.8,0l20,11.7c0.3,0.1,0.4,0.4,0.4,0.7s-0.2,0.6-0.4,0.7l-20,11.7
		C25.3,25.8,25.1,25.8,25,25.8L25,25.8z"/>
	<polygon class="st1" points="16.6,13.3 25,18.2 33.4,13.3 25,8.4 	"/>
	<path class="st1" d="M25,21.8c-0.2,0-0.4,0-0.5-0.1l-12.7-7.4c-0.3-0.2-0.5-0.5-0.5-0.9s0.2-0.7,0.5-0.9L24.5,5
		c0.3-0.2,0.7-0.2,1.1,0l12.7,7.4c0.3,0.2,0.5,0.5,0.5,0.9s-0.2,0.7-0.5,0.9l-12.7,7.4C25.4,21.7,25.2,21.8,25,21.8L25,21.8z"/>
</g>
</svg>
